HIERARCHY
ROOT Hips
{
    OFFSET 0.000000 0.000000 0.000000
    CHANNELS 6 Xposition Yposition Zposition Zrotation Xrotation Yrotation
    JOINT Spine
    {
        OFFSET -0.000000 7.925200 0.000000
        CHANNELS 3 Zrotation Xrotation Yrotation
        JOINT Spine1
        {
            OFFSET -0.000000 23.364719 0.000000
            CHANNELS 3 Zrotation Xrotation Yrotation
            JOINT Neck
            {
                OFFSET -0.000000 23.268766 2.115342
                CHANNELS 3 Zrotation Xrotation Yrotation
                JOINT Head
                {
                    OFFSET -0.000000 13.530829 -1.932976
                    CHANNELS 3 Zrotation Xrotation Yrotation
                    End Site
                    {
                        OFFSET -0.000000 24.162195 0.000000
                    }
                }
            }
            JOINT LeftShoulder
            {
                OFFSET 3.858291 22.792089 -0.033814
                CHANNELS 3 Zrotation Xrotation Yrotation
                JOINT LeftArm
                {
                    OFFSET 7.057024 0.000000 0.000000
                    CHANNELS 3 Zrotation Xrotation Yrotation
                    JOINT LeftForeArm
                    {
                        OFFSET 34.734173 0.000000 0.000000
                        CHANNELS 3 Zrotation Xrotation Yrotation
                        JOINT LeftHand
                        {
                            OFFSET 23.943203 0.000000 0.000000
                            CHANNELS 3 Zrotation Xrotation Yrotation
                            End Site
                            {
                                OFFSET 14.497317 0.000000 0.000000
                            }
                        }
                    }
                }
            }
            JOINT RightShoulder
            {
                OFFSET -3.868823 22.792089 -0.033814
                CHANNELS 3 Zrotation Xrotation Yrotation
                JOINT RightArm
                {
                    OFFSET -7.057024 0.000000 0.000000
                    CHANNELS 3 Zrotation Xrotation Yrotation
                    JOINT RightForeArm
                    {
                        OFFSET -34.734173 0.000000 0.000000
                        CHANNELS 3 Zrotation Xrotation Yrotation
                        JOINT RightHand
                        {
                            OFFSET -23.943203 0.000000 0.000000
                            CHANNELS 3 Zrotation Xrotation Yrotation
                            End Site
                            {
                                OFFSET -14.497317 0.000000 0.000000
                            }
                        }
                    }
                }
            }
        }
    }
    JOINT LeftUpLeg
    {
        OFFSET 9.664878 0.000000 0.000000
        CHANNELS 3 Zrotation Xrotation Yrotation
        JOINT LeftLeg
        {
            OFFSET -0.000000 -38.728706 0.000000
            CHANNELS 3 Zrotation Xrotation Yrotation
            JOINT LeftFoot
            {
                OFFSET -0.000000 -40.242161 0.000000
                CHANNELS 3 Zrotation Xrotation Yrotation
                JOINT LeftToeBase
                {
                    OFFSET -0.000000 -6.282171 14.497317
                    CHANNELS 3 Zrotation Xrotation Yrotation
                    End Site
                    {
                        OFFSET -0.000000 0.000000 3.865951
                    }
                }
            }
        }
    }
    JOINT RightUpLeg
    {
        OFFSET -9.664878 0.000000 0.000000
        CHANNELS 3 Zrotation Xrotation Yrotation
        JOINT RightLeg
        {
            OFFSET -0.000000 -38.728706 0.000000
            CHANNELS 3 Zrotation Xrotation Yrotation
            JOINT RightFoot
            {
                OFFSET -0.000000 -40.242161 0.000000
                CHANNELS 3 Zrotation Xrotation Yrotation
                JOINT RightToeBase
                {
                    OFFSET -0.000000 -6.282171 14.497317
                    CHANNELS 3 Zrotation Xrotation Yrotation
                    End Site
                    {
                        OFFSET -0.000000 0.000000 3.865951
                    }
                }
            }
        }
    }
}
MOTION
Frames:    11
Frame Time:    0.008333
67.835594    131.818436    31.044802    -4.773156    -2.071158    85.635864    2.422592    -6.378275    -0.576251    0.037773    9.033937    -0.714233    -2.780391    11.393971    11.018870    -6.897135    0.010673    10.625661    -1.261671    4.400683    2.270940    -27.230244    66.706520    -31.225834    12.055210    -13.853374    -34.168526    -11.208359    -9.751987    -4.790756    -1.056386    7.054135    7.963480    25.662502    60.201683    41.110065    -3.483555    -13.447432    23.786226    3.756481    -12.684052    1.498409    5.620221    -1.195120    7.057244    -3.644480    4.692481    0.712442    0.420969    -6.870474    3.617524    0.000000    0.000000    0.000000    5.451829    -4.699594    -2.499251    -2.524006    6.731673    2.863394    -3.222324    -4.800703    -2.867382    0.000000    0.000000    0.000000    
67.774132    131.844589    31.078470    -4.791156    -2.068326    85.650185    2.413040    -6.236423    -0.541827    0.046112    8.944910    -0.676941    -2.675945    11.511766    11.005201    -7.023045    -0.163052    10.575458    -1.206127    4.458076    2.151899    -27.444574    66.634590    -31.096134    11.942726    -13.907839    -34.128273    -11.073581    -9.867069    -4.632482    -0.980524    7.030773    7.960638    25.542210    60.225536    41.182793    -3.557142    -13.698010    23.889942    3.529974    -12.924526    1.344476    5.704120    -1.362696    7.108473    -3.697385    4.917849    0.327990    0.332932    -6.861508    3.935932    0.000000    0.000000    0.000000    5.487935    -4.790377    -2.432206    -2.532394    6.775526    2.860611    -3.276829    -4.712960    -2.929254    0.000000    0.000000    0.000000    
67.701927    131.866730    31.115681    -4.857633    -2.067426    85.672089    2.443509    -6.076128    -0.527188    -0.006906    8.695205    -0.656407    -2.634224    11.611637    10.992496    -7.005425    -0.111503    10.563530    -1.213485    4.583381    2.004163    -27.799400    66.312798    -30.715160    11.662148    -13.729033    -34.186348    -10.911346    -9.763944    -4.714078    -0.798009    7.077654    8.113807    25.539801    60.220398    41.018314    -3.579494    -14.050806    23.957827    3.353023    -13.272042    1.403385    5.800750    -1.617264    7.200940    -3.736115    5.183571    0.177224    0.141239    -6.867185    3.957295    0.000000    0.000000    0.000000    5.533330    -4.988375    -2.672574    -2.575193    6.911950    3.160934    -3.360592    -4.661964    -2.996048    0.000000    0.000000    0.000000    
67.637413    131.889816    31.148602    -4.899053    -2.054115    85.697289    2.447727    -6.073893    -0.516804    -0.002427    8.859118    -0.646529    -2.607457    11.373587    11.001258    -7.021528    0.017502    10.582814    -1.139374    4.528360    2.040086    -27.755610    66.336487    -30.844652    11.707952    -13.834165    -34.281513    -10.827736    -9.862521    -4.574206    -0.914895    7.004220    8.102159    25.338915    60.159710    41.338104    -3.572914    -14.188930    24.052465    3.232025    -13.406933    1.530229    5.875468    -1.849316    7.259733    -3.771067    5.461702    0.033156    -0.003928    -6.889263    4.000152    0.000000    0.000000    0.000000    5.559894    -5.059238    -2.263988    -2.540286    6.884924    2.736907    -3.414705    -4.549991    -2.986271    0.000000    0.000000    0.000000    
67.553917    131.919586    31.189802    -4.972217    -2.061691    85.662155    2.482071    -6.022557    -0.505879    0.008137    8.895310    -0.637175    -2.886264    11.213999    11.035244    -6.627392    0.013827    10.690439    -1.146816    4.460073    2.114308    -27.763163    66.367744    -30.837317    11.634641    -13.925064    -34.381157    -11.003041    -9.953980    -4.631016    -1.052560    7.013234    8.192120    25.102856    60.092728    41.673943    -3.560111    -14.349811    24.197758    3.175364    -13.564537    1.628002    5.997446    -2.133661    7.388040    -3.833548    5.778793    -0.036199    -0.199346    -6.919403    3.977088    0.000000    0.000000    0.000000    5.628615    -5.247095    -2.187193    -2.563207    6.984303    2.736845    -3.423245    -4.449613    -3.032232    0.000000    0.000000    0.000000    
67.489761    131.938858    31.220743    -5.024189    -2.016077    85.719337    2.472699    -5.991286    -0.522540    -0.019531    8.947978    -0.650432    -2.624238    11.062481    11.018594    -6.999524    0.211547    10.624072    -1.131343    4.430574    2.170493    -27.651312    66.481079    -30.951780    11.689097    -14.004954    -34.482738    -10.826646    -10.017013    -4.600362    -1.090389    7.036053    8.239809    24.768761    60.064659    42.020748    -3.601245    -14.480859    24.353901    3.084085    -13.681887    1.698482    6.000905    -2.465570    7.426744    -3.816386    6.125550    0.059483    -0.418174    -6.915347    3.838679    0.000000    0.000000    0.000000    5.610489    -5.378273    -2.215986    -2.573278    7.048219    2.713681    -3.412217    -4.435191    -3.032736    0.000000    0.000000    0.000000    
67.440437    131.947586    31.248825    -5.046012    -1.944988    85.818130    2.433611    -5.925263    -0.540685    -0.056916    8.926565    -0.662211    -2.587826    11.098794    11.037457    -7.001451    0.157614    10.637568    -1.120902    4.473611    2.120863    -27.718653    66.507706    -30.881399    11.754170    -14.055392    -34.566532    -10.995023    -10.038250    -4.535161    -1.068482    7.052509    8.339867    24.516182    60.117798    42.186203    -3.666046    -14.602351    24.538692    3.017229    -13.785069    1.701691    6.080802    -2.702859    7.210378    -4.011206    6.465849    -0.099855    -0.517459    -7.007550    4.127480    0.000000    0.000000    0.000000    5.549873    -5.449238    -2.306164    -2.573238    7.070786    2.662340    -3.365700    -4.463289    -2.988265    0.000000    0.000000    0.000000    
67.371597    131.954163    31.269348    -5.098107    -1.846041    85.893356    2.424778    -5.811010    -0.566510    -0.164375    8.773486    -0.677013    -2.605724    11.364756    11.121059    -7.009964    -0.153754    10.699201    -1.146695    4.538732    2.066625    -27.808695    66.566994    -30.700039    11.808908    -14.170692    -34.693707    -11.239365    -10.105752    -4.625284    -1.009878    7.138833    8.539111    24.582729    59.982143    42.048061    -3.658052    -14.619427    24.661137    3.160399    -13.793682    1.856694    6.012106    -3.067463    7.333605    -3.913766    6.929913    -0.210341    -0.782937    -7.110196    4.007064    0.000000    0.000000    0.000000    5.447414    -5.574355    -2.413289    -2.556430    7.111370    2.593590    -3.337802    -4.524857    -2.880666    0.000000    0.000000    0.000000    
67.298042    131.962219    31.311039    -5.152339    -1.795574    85.940926    2.422569    -5.763885    -0.545925    -0.233747    8.782658    -0.650000    -2.518644    11.345014    11.149101    -7.083763    -0.173088    10.713273    -1.038411    4.489605    2.049267    -27.703167    66.923279    -30.866781    12.036789    -14.404308    -34.773647    -10.863363    -10.283519    -4.567622    -0.997893    7.113322    8.583268    24.323765    60.046371    42.253368    -3.910449    -14.612053    24.733881    3.772717    -13.706349    2.298162    6.133948    -3.368006    7.238385    -4.086399    7.318892    -0.207915    -0.921692    -7.200857    4.021421    0.000000    0.000000    0.000000    5.417231    -5.696710    -2.471412    -2.542160    7.127342    2.316049    -3.014143    -4.612226    -2.801085    0.000000    0.000000    0.000000    
67.225845    131.971695    31.370661    -5.197601    -1.785393    85.960930    2.402176    -5.737488    -0.483659    -0.229694    8.862988    -0.586326    -2.380317    11.341288    11.142647    -7.255029    -0.311792    10.667232    -0.898323    4.490740    1.951660    -27.633837    66.949471    -31.036474    12.079403    -14.422400    -34.911293    -11.080597    -10.252798    -4.687452    -1.013745    7.021934    8.520332    23.981419    60.162994    42.540428    -3.973118    -14.650928    24.954540    3.811243    -13.721013    2.374635    6.263098    -3.668191    7.142578    -4.192711    7.700829    0.065928    -1.093235    -7.270024    3.796364    0.000000    0.000000    0.000000    5.470049    -5.797580    -2.558276    -2.597361    7.152966    2.464772    -2.933075    -4.564863    -2.868953    0.000000    0.000000    0.000000    
67.156944    131.970688    31.415314    -5.252141    -1.737716    85.994072    2.312755    -5.800027    -0.425618    -0.122065    9.103454    -0.533112    -2.259794    11.063088    11.180138    -7.471192    -0.055705    10.692196    -0.806536    4.439184    1.928569    -27.326544    67.029785    -31.462330    12.112872    -14.490166    -35.083179    -11.081792    -10.276842    -4.839399    -1.216437    6.911412    8.350805    23.525269    60.230625    43.075985    -3.910705    -14.712553    25.231560    3.618589    -13.792249    2.318586    6.324856    -4.040098    7.295581    -4.185968    8.262724    0.054351    -1.278132    -7.435160    3.563353    0.000000    0.000000    0.000000    5.431071    -5.909431    -2.580775    -2.563371    7.192015    2.467055    -2.879983    -4.598625    -2.862525    0.000000    0.000000    0.000000    
